<?xml version="1.0" encoding="UTF-8"?>
<svg id="OBJECTS" xmlns="http://www.w3.org/2000/svg" viewBox="0 0 500 171.91">
  <defs>
    <style>
      .cls-1 {
        fill: #00ccbd;
      }

      .cls-2 {
        fill: #919191;
      }
    </style>
  </defs>
  <path class="cls-2" d="M65.3,84.22c-1.48,0-2.69-1.21-2.69-2.69s1.21-2.69,2.69-2.69h43.25c1.48,0,2.69,1.21,2.69,2.69s-1.21,2.69-2.69,2.69h-43.25Z"/>
  <path class="cls-2" d="M65.3,68.63c-1.48,0-2.69-1.21-2.69-2.69s1.21-2.69,2.69-2.69h8.05c1.48,0,2.69,1.21,2.69,2.69s-1.21,2.69-2.69,2.69h-8.05Z"/>
  <path class="cls-2" d="M50.47,84.22c-.71,0-1.4-.29-1.9-.79-.5-.5-.79-1.2-.79-1.9s.29-1.4.79-1.9c.5-.5,1.2-.79,1.9-.79s1.4.29,1.9.79.79,1.19.79,1.9-.29,1.4-.79,1.9-1.2.79-1.9.79Z"/>
  <path class="cls-2" d="M75.36,99.93c-1.48,0-2.69-1.21-2.69-2.69s1.21-2.69,2.69-2.69h11.57c1.48,0,2.69,1.21,2.69,2.69s-1.21,2.69-2.69,2.69h-11.57Z"/>
  <path class="cls-1" d="M94.49,124.41c-.91,0-1.8-.35-2.45-.97-.69-.64-1.09-1.58-1.09-2.51,0-.65.2-1.35.56-1.89l8.27-12.93-.4-.9c-1.08-2.41-1.82-4.96-2.22-7.56-.11-.71.06-1.42.49-2s1.05-.96,1.76-1.07c.14-.02.28-.03.42-.03,1.31,0,2.45.98,2.66,2.28.35,2.25,1,4.41,1.95,6.47h-.03s.43.83.43.83c.12.24.25.47.37.71l.07.13s.09.16.09.16c.49,1,.32,2.18-.44,3l-.11.12-5.35,8.37,5.26-2.06c1.91-.75,3.67-1.41,5.22-1.96.29-.1.59-.15.9-.15.57,0,1.11.17,1.57.51,4.17,2.99,9.1,4.57,14.24,4.57h20.76c6.52,0,12.66-2.55,17.29-7.16,4.62-4.62,7.16-10.76,7.16-17.29,0-6.53-2.54-12.66-7.16-17.29-4.62-4.62-10.76-7.16-17.29-7.16h-60.47c-1.48,0-2.69-1.21-2.69-2.69s1.21-2.69,2.69-2.69h60.47c7.98,0,15.47,3.1,21.09,8.74,5.64,5.63,8.74,13.12,8.74,21.1,0,7.97-3.1,15.47-8.74,21.09-5.63,5.64-13.12,8.74-21.09,8.74h-20.77c-5.46,0-10.8-1.49-15.45-4.31l-.76-.46-.83.31c-2.84,1.06-5.7,2.22-7.59,3.01-2.61,1.08-4.63,1.96-5.38,2.29l-.11.05-.1.06c-.22.13-.43.24-.63.31-.42.16-.86.24-1.3.24h0Z"/>
  <path class="cls-1" d="M119.68,96.99c-1.74,0-3.16-1.42-3.16-3.16s1.42-3.16,3.16-3.16,3.16,1.42,3.16,3.16-1.42,3.16-3.16,3.16Z"/>
  <path class="cls-1" d="M136.65,96.99c-1.74,0-3.16-1.42-3.16-3.16s1.42-3.16,3.16-3.16,3.16,1.42,3.16,3.16-1.42,3.16-3.16,3.16Z"/>
  <path class="cls-1" d="M153.62,96.99c-1.74,0-3.16-1.42-3.16-3.16s1.42-3.16,3.16-3.16,3.16,1.42,3.16,3.16-1.42,3.16-3.16,3.16Z"/>
  <path class="cls-2" d="M203.17,110.52c-.31-.02-.9-.04-1.8-.04h-.47c-1.07,0-1.59-1.22-6.91-14.47-1.72-4.29-3.93-9.79-6.81-16.86-.17-.38-.24-.66-.24-.92,0-.3.08-.75.48-1.22.46-.58,1.16-.9,1.89-.9.93,0,1.56.44,1.93,1.35l11.46,28.08.9-2.39c1.73-4.62,3.16-8.46,4.35-11.67,5.71-15.38,5.77-15.38,7.39-15.38.69,0,1.36.35,1.79.94.38.55.38,1.02.38,1.28,0,.27-.04.49-.13.7l-11.45,30.12c-.36,1.01-1.06,1.38-2.6,1.38h-.18Z"/>
  <path class="cls-2" d="M236.5,111.15c-7.36,0-13.97-4.31-16.85-10.98-.95-2.19-1.42-4.52-1.42-6.93,0-9.88,8.2-17.91,18.28-17.91s18.33,8.04,18.33,17.91-8.22,17.91-18.33,17.91ZM236.5,79.56c-7.69,0-13.94,6.14-13.94,13.68s6.25,13.68,13.94,13.68,13.94-6.01,13.94-13.68-6.25-13.68-13.94-13.68Z"/>
  <path class="cls-2" d="M277.24,110.47c-10.28,0-18.33-7.57-18.33-17.24s7.64-16.88,17.78-17.13h6.78c1.64,0,2.08,1.33,2.08,2.12,0,.95-.54,2.06-2.08,2.06h-6.23c-8.7,0-13.26,6.52-13.26,12.96,0,3.42,1.22,6.6,3.43,8.96,2.5,2.67,6.06,4.08,10.29,4.08h5.77c1.53,0,2.08,1.11,2.08,2.06,0,.79-.44,2.12-2.08,2.12h-6.23Z"/>
  <path class="cls-2" d="M323.95,110.47c-1.61,0-1.7-.09-2.05-.43-2.94-3.53-7.65-5.59-12.86-5.59-.05,0-.14,0-.28,0-.31.01-.9.04-1.8.04-1.4.06-3.2.54-5.56,1.47-2.36.93-4.41,2.31-6.08,4.09l-.07.08-.05.09c-.05.09-.07.11-.08.12-.06.03-.36.13-1.66.13h-2.7c-.2,0-.28-.05-.37-.21-.06-.12-.08-.22-.08-.4,0-.06,0-.13,0-.19,4.25-9.1,7.25-15.63,9.43-20.34q5.5-11.94,6.56-12.63l.13-.09c.96-.62,1.78-.62,2.13-.62h.18c1.38,0,3.2.69,4.14,2.61v-.05c.25.72,1.31,3.03,5.5,12.19,3.38,7.39,7.97,17.42,8.48,18.75v.12l.14.24c.06.09.06.17.06.21,0,0-.01.4-.3.4h-2.81ZM307.77,82c-3.8,8.04-5.61,12.12-6.58,14.31l-.39.88c-.52,1.16-.75,1.71-1,2.31-.18.42-.36.86-.66,1.55l-.93,2.13,2.19-.79c1.44-.52,2.76-.88,4.04-1.1,1.26-.23,2.4-.35,3.21-.35.65,0,1.09-.03,1.32-.05h.1c2.58,0,5.42.44,8,1.25l2.09.66-1.39-3.2c-.73-1.32-.93-1.76-6.19-13.26l-2.87-6.28-.92,1.95Z"/>
  <path class="cls-2" d="M343.28,110.42c-9.07,0-16.46-6.54-16.46-14.59v-17.67c0-1.63,1.4-2.07,2.22-2.07.5,0,2.12.15,2.12,2.07v17.35c0,6.02,5.39,10.56,12.53,10.56,1.36,0,2.07,1.11,2.07,2.2,0,.57-.2,1.09-.56,1.47-.43.44-1.09.68-1.92.68Z"/>
  <path class="cls-1" d="M383.34,110.42c-1.02,0-2.12-.57-2.12-2.17v-27.71l-1.27.36c-5.7,1.61-9.65,6.72-9.82,12.73-.04,1.51-1.15,2.04-2.17,2.04-.48,0-2.07-.15-2.12-2.04-.17-6.03-4.02-11.02-9.81-12.73l-1.28-.38v27.73c0,1.49-1.15,2.17-2.22,2.17s-2.12-.57-2.12-2.17v-30.13c0-.52,0-2.12,3.05-2.12,3.93,0,10.24,2.96,13.57,7.73l.05.07.36.36.47.05c.57,0,.87-.36,1.4-1.01.55-.67,1.47-1.79,3-3.13,2.06-1.83,5.67-4.01,11.19-4.01,1.16,0,2.07.91,2.07,2.07v30.13c0,1.49-1.15,2.17-2.22,2.17Z"/>
  <path class="cls-1" d="M393.78,110.47c-1.14,0-2.07-.93-2.07-2.07v-30.24c0-1.16.91-2.07,2.07-2.07h18.76c1.67,0,2.12,1.36,2.12,2.17,0,.58-.19,1.13-.53,1.52-.38.43-.91.65-1.59.65h-16.48v10.88h13.31c1.67,0,2.12,1.35,2.12,2.14s-.45,2.14-2.12,2.14h-13.31v10.52h16.48c1.67,0,2.12,1.36,2.12,2.17s-.45,2.17-2.12,2.17h-18.76Z"/>
  <path class="cls-1" d="M431.82,110.58c-.23,0-.57,0-1.06-.02-1.3-.03-3.72-.08-7.82-.08-1.52,0-2.33-1.13-2.56-2.09-.04-.19-.08-.38-.08-.6,0-1.05.48-1.79,1.46-2.27,2.48-1.16,4.39-3.67,5.36-7.07.71-2.45.75-4.19.71-5.01,0-5.51-2.31-10.13-6.17-12.35-.92-.51-1.37-1.26-1.37-2.3,0-.57.11-1.32,1.01-2.1.41-.41.93-.58,1.63-.58h12.37c.35,0,.52.02.72.05l.3.04c4.76.41,9,2.63,11.98,6.24,2.53,3.12,3.93,7.03,3.93,11,0,.33-.05,1.14-.15,2.47-.05,1.17-.57,2.81-1.57,4.9-.98,2.07-2.47,3.93-4.41,5.53-4.72,3.92-9.26,4.24-14.27,4.24ZM429.53,81.85c4.64,6.85,4.48,16.45-.38,22.84l-1.22,1.61h7.06c8-.16,12.17-6.67,12.17-13,.1-1.28-.2-3.01-.83-4.85-.5-1.51-1.31-2.94-2.32-4.12-2.27-2.64-5.5-4.04-9.33-4.04h-6.2l1.06,1.56Z"/>
</svg>